# xmcd CD database file
#
# Track frame offsets:
#	150
#	21931
#	40255
#	58634
#	77812
#	100550
#	120583
#	138091
#
# Disc length: 2126 seconds
#
# Revision: 0
# Processed by: cddbd v1.5.2PL0 Copyright (c) Steve Scherf et al.
# Submitted via: CDex 1.70beta2
#
DISCID=5c084c08
DTITLE=Los Del Caney - Pa'todo El Mundo
DYEAR=1900
DGENRE=Salsa
TTITLE0=Por La Mujer Que Yo Quiero
TTITLE1=Melao
TTITLE2=No Vale La Pena
TTITLE3=Discomano Rumbero
TTITLE4=Ay Ramon
TTITLE5=La Flaca
TTITLE6=Solo Ella
TTITLE7=Te Olvide
EXTD=
EXTT0=
EXTT1=
EXTT2=
EXTT3=
EXTT4=
EXTT5=
EXTT6=
EXTT7=
PLAYORDER=
